# xmcd
#
# Track frame offsets: 
#        150
#        16749
#        36313
#        51068
#        68687
#        83535
#        103925
#        124851
#        140025
#        155616
#        176031
#        191930
#        211722
#        235905
#        278393
#        301714
#        334024
#
# Disc length: 4500 seconds
#
# Revision: 0
# Processed by: cddbd v1.5.1PL0 Copyright (c) Steve Scherf et al.
# Submitted via: ExactAudioCopy v0.95b2
#
DISCID=e5119211
DTITLE=Randy Rogers Band - Live At Billy Bob's Texas
DYEAR=2005
DGENRE=Texas Country
TTITLE0=Somebody Take Me Home
TTITLE1=Down And Out
TTITLE2=Like It Used To Be
TTITLE3=Company You Keep
TTITLE4=Still Be Losing You
TTITLE5=Can't Slow Down
TTITLE6=Love Must Follow You Around
TTITLE7=One Thing I Know
TTITLE8=Again
TTITLE9=I Never Meant To Break Your Heart
TTITLE10=Ten Miles Deep
TTITLE11=Tonight's Not The Night (For Goodbye)
TTITLE12=They Call It The Hill Country
TTITLE13=Lost And Found
TTITLE14=This Time Around
TTITLE15=An Empty Glass (That's The Way The Day Ends)
TTITLE16=Data
EXTD=
EXTT0=
EXTT1=
EXTT2=
EXTT3=
EXTT4=
EXTT5=
EXTT6=
EXTT7=
EXTT8=
EXTT9=
EXTT10=
EXTT11=
EXTT12=
EXTT13=
EXTT14=
EXTT15=
EXTT16=
PLAYORDER=
